<svg width="265" height="47" viewBox="0 0 265 47" fill="none" xmlns="http://www.w3.org/2000/svg">
<path d="M1.5 45.672L10.569 32.3642L19.6379 4.43663L28.7069 43.3291L37.7759 44.1725L46.8448 41.361L55.9138 2L64.9828 10.5751L74.0517 26.2726L83.1207 8.56017L92.1897 7.38871L101.259 23.7891L110.328 21.6337L119.397 26.8818L128.466 16.8072L137.534 41.361L146.603 7.24814L155.672 35.082L164.741 10.0128L173.81 13.246L182.879 30.3493L191.948 35.0351L201.017 35.3632L210.086 38.9712L219.155 16.1512L228.224 36.0192L237.293 28.9904L246.362 5.23323L255.431 44.5474L264.5 46" stroke="#4078FF" stroke-width="1.5"/>
</svg>
