<svg width="100" height="100" viewBox="0 0 100 100" fill="none" xmlns="http://www.w3.org/2000/svg">
<mask id="path-1-outside-1_1707_136" maskUnits="userSpaceOnUse" x="48" y="0" width="52" height="92" fill="black">
<rect fill="white" x="48" width="52" height="92"/>
<path d="M50 2C60.1366 2 70.013 5.20904 78.2137 11.1672C86.4144 17.1253 92.5183 25.5267 95.6507 35.1672C98.7831 44.8077 98.7831 55.1923 95.6507 64.8328C92.5183 74.4733 86.4144 82.8747 78.2137 88.8328L72.571 81.0663C79.1315 76.2997 84.0147 69.5786 86.5206 61.8663C89.0265 54.1539 89.0265 45.8461 86.5206 38.1337C84.0147 30.4214 79.1315 23.7003 72.571 18.9337C66.0104 14.1672 58.1093 11.6 50 11.6V2Z"/>
</mask>
<path d="M50 2C60.1366 2 70.013 5.20904 78.2137 11.1672C86.4144 17.1253 92.5183 25.5267 95.6507 35.1672C98.7831 44.8077 98.7831 55.1923 95.6507 64.8328C92.5183 74.4733 86.4144 82.8747 78.2137 88.8328L72.571 81.0663C79.1315 76.2997 84.0147 69.5786 86.5206 61.8663C89.0265 54.1539 89.0265 45.8461 86.5206 38.1337C84.0147 30.4214 79.1315 23.7003 72.571 18.9337C66.0104 14.1672 58.1093 11.6 50 11.6V2Z" fill="#4078FF"/>
<path d="M50 2C60.1366 2 70.013 5.20904 78.2137 11.1672C86.4144 17.1253 92.5183 25.5267 95.6507 35.1672C98.7831 44.8077 98.7831 55.1923 95.6507 64.8328C92.5183 74.4733 86.4144 82.8747 78.2137 88.8328L72.571 81.0663C79.1315 76.2997 84.0147 69.5786 86.5206 61.8663C89.0265 54.1539 89.0265 45.8461 86.5206 38.1337C84.0147 30.4214 79.1315 23.7003 72.571 18.9337C66.0104 14.1672 58.1093 11.6 50 11.6V2Z" stroke="white" stroke-width="4" mask="url(#path-1-outside-1_1707_136)"/>
<mask id="path-2-outside-2_1707_136" maskUnits="userSpaceOnUse" x="1" y="59" width="81" height="41" fill="black">
<rect fill="white" x="1" y="59" width="81" height="41"/>
<path d="M78.2072 88.8375C72.0783 93.2889 64.9828 96.2266 57.501 97.4103C50.0191 98.594 42.3633 97.9902 35.1596 95.6482C27.9558 93.3063 21.4086 89.2926 16.0532 83.9355C10.6979 78.5783 6.68639 72.0298 4.34682 64.8252L13.4775 61.8602C15.3491 67.6238 18.5583 72.8627 22.8426 77.1484C27.1269 81.4341 32.3647 84.645 38.1277 86.5186C43.8907 88.3922 50.0153 88.8752 56.0008 87.9282C61.9862 86.9813 67.6626 84.6311 72.5658 81.07L78.2072 88.8375Z"/>
</mask>
<path d="M78.2072 88.8375C72.0783 93.2889 64.9828 96.2266 57.501 97.4103C50.0191 98.594 42.3633 97.9902 35.1596 95.6482C27.9558 93.3063 21.4086 89.2926 16.0532 83.9355C10.6979 78.5783 6.68639 72.0298 4.34682 64.8252L13.4775 61.8602C15.3491 67.6238 18.5583 72.8627 22.8426 77.1484C27.1269 81.4341 32.3647 84.645 38.1277 86.5186C43.8907 88.3922 50.0153 88.8752 56.0008 87.9282C61.9862 86.9813 67.6626 84.6311 72.5658 81.07L78.2072 88.8375Z" fill="#728FFF"/>
<path d="M78.2072 88.8375C72.0783 93.2889 64.9828 96.2266 57.501 97.4103C50.0191 98.594 42.3633 97.9902 35.1596 95.6482C27.9558 93.3063 21.4086 89.2926 16.0532 83.9355C10.6979 78.5783 6.68639 72.0298 4.34682 64.8252L13.4775 61.8602C15.3491 67.6238 18.5583 72.8627 22.8426 77.1484C27.1269 81.4341 32.3647 84.645 38.1277 86.5186C43.8907 88.3922 50.0153 88.8752 56.0008 87.9282C61.9862 86.9813 67.6626 84.6311 72.5658 81.07L78.2072 88.8375Z" stroke="white" stroke-width="4" mask="url(#path-2-outside-2_1707_136)"/>
<mask id="path-3-outside-3_1707_136" maskUnits="userSpaceOnUse" x="0" y="0" width="53" height="68" fill="black">
<rect fill="white" width="53" height="68"/>
<path d="M4.34335 64.8145C2.00547 57.6094 1.406 49.9533 2.59397 42.4722C3.78193 34.991 6.7236 27.8972 11.1785 21.7708C15.6333 15.6444 21.4749 10.6592 28.2255 7.22299C34.9762 3.78676 42.4442 1.99698 50.0191 2L50.0153 11.6C43.9554 11.5976 37.9809 13.0294 32.5804 15.7784C27.1799 18.5274 22.5067 22.5155 18.9428 27.4166C15.3789 32.3178 13.0255 37.9928 12.0752 43.9777C11.1248 49.9627 11.6044 56.0876 13.4747 61.8516L4.34335 64.8145Z"/>
</mask>
<path d="M4.34335 64.8145C2.00547 57.6094 1.406 49.9533 2.59397 42.4722C3.78193 34.991 6.7236 27.8972 11.1785 21.7708C15.6333 15.6444 21.4749 10.6592 28.2255 7.22299C34.9762 3.78676 42.4442 1.99698 50.0191 2L50.0153 11.6C43.9554 11.5976 37.9809 13.0294 32.5804 15.7784C27.1799 18.5274 22.5067 22.5155 18.9428 27.4166C15.3789 32.3178 13.0255 37.9928 12.0752 43.9777C11.1248 49.9627 11.6044 56.0876 13.4747 61.8516L4.34335 64.8145Z" fill="#A8B2FF"/>
<path d="M4.34335 64.8145C2.00547 57.6094 1.406 49.9533 2.59397 42.4722C3.78193 34.991 6.7236 27.8972 11.1785 21.7708C15.6333 15.6444 21.4749 10.6592 28.2255 7.22299C34.9762 3.78676 42.4442 1.99698 50.0191 2L50.0153 11.6C43.9554 11.5976 37.9809 13.0294 32.5804 15.7784C27.1799 18.5274 22.5067 22.5155 18.9428 27.4166C15.3789 32.3178 13.0255 37.9928 12.0752 43.9777C11.1248 49.9627 11.6044 56.0876 13.4747 61.8516L4.34335 64.8145Z" stroke="white" stroke-width="4" mask="url(#path-3-outside-3_1707_136)"/>
</svg>
