<svg width="274" height="46" viewBox="0 0 274 46" fill="none" xmlns="http://www.w3.org/2000/svg">
<path d="M0 19H4V46H0V19Z" fill="#4078FF"/>
<path d="M10 4H14V46H10V4Z" fill="#4078FF"/>
<path d="M20 9H24V46H20V9Z" fill="#4078FF"/>
<path d="M30 0H34V46H30V0Z" fill="#4078FF"/>
<path d="M40 6H44V46H40V6Z" fill="#4078FF"/>
<path d="M50 14H54V46H50V14Z" fill="#4078FF"/>
<path d="M60 32H64V46H60V32Z" fill="#4078FF"/>
<path d="M70 6H74V46H70V6Z" fill="#4078FF"/>
<path d="M80 9H84V46H80V9Z" fill="#4078FF"/>
<path d="M90 21H94V46H90V21Z" fill="#4078FF"/>
<path d="M100 32H104V46H100V32Z" fill="#4078FF"/>
<path d="M110 23H114V46H110V23Z" fill="#4078FF"/>
<path d="M120 14H124V46H120V14Z" fill="#4078FF"/>
<path d="M130 4H134V46H130V4Z" fill="#4078FF"/>
<path d="M140 0H144V46H140V0Z" fill="#4078FF"/>
<path d="M150 6H154V46H150V6Z" fill="#4078FF"/>
<path d="M160 14H164V46H160V14Z" fill="#4078FF"/>
<path d="M170 0H174V46H170V0Z" fill="#4078FF"/>
<path d="M180 14H184V46H180V14Z" fill="#4078FF"/>
<path d="M190 9H194V46H190V9Z" fill="#4078FF"/>
<path d="M200 4H204V46H200V4Z" fill="#4078FF"/>
<path d="M210 17H214V46H210V17Z" fill="#4078FF"/>
<path d="M220 6H224V46H220V6Z" fill="#4078FF"/>
<path d="M230 9H234V46H230V9Z" fill="#4078FF"/>
<path d="M240 17H244V46H240V17Z" fill="#4078FF"/>
<path d="M250 9H254V46H250V9Z" fill="#4078FF"/>
<path d="M260 26H264V46H260V26Z" fill="#4078FF"/>
<path d="M270 17H274V46H270V17Z" fill="#4078FF"/>
</svg>
